<?xml version="1.0" standalone="no"?>
<!DOCTYPE svg PUBLIC "-//W3C//DTD SVG 20010904//EN"
 "http://www.w3.org/TR/2001/REC-SVG-20010904/DTD/svg10.dtd">
<svg version="1.0" xmlns="http://www.w3.org/2000/svg"
 width="512.000000pt" height="512.000000pt" viewBox="0 0 512.000000 512.000000"
 preserveAspectRatio="xMidYMid meet">

<g transform="translate(0.000000,512.000000) scale(0.100000,-0.100000)"
fill="#000000" stroke="none">
<path d="M2385 5114 c-441 -46 -845 -212 -1164 -478 -100 -84 -261 -252 -334
-348 -185 -246 -324 -553 -382 -842 -42 -212 -45 -285 -45 -1250 0 -777 3
-931 15 -984 47 -199 219 -364 420 -402 l67 -13 -326 -326 c-313 -314 -326
-328 -326 -365 0 -48 13 -72 50 -91 64 -33 69 -29 285 185 l201 200 1714 0
1714 0 201 -200 c216 -214 221 -218 285 -185 37 19 50 43 50 91 0 37 -13 51
-326 365 l-326 326 67 13 c199 38 373 204 420 401 12 55 15 199 15 985 0 579
-4 960 -11 1025 -34 338 -155 679 -338 954 -280 423 -706 733 -1191 868 -167
47 -319 68 -515 72 -99 2 -198 1 -220 -1z m495 -223 c850 -148 1493 -847 1570
-1707 7 -77 10 -439 8 -1024 l-3 -905 -26 -55 c-37 -80 -81 -125 -157 -162
l-67 -33 -1645 0 -1645 0 -67 33 c-76 37 -120 82 -157 162 l-26 55 0 975 c0
898 1 984 18 1084 143 844 805 1483 1650 1591 148 19 394 13 547 -14z m1095
-4191 l100 -100 -1515 0 -1515 0 100 100 100 100 1315 0 1315 0 100 -100z"/>
<path d="M2360 4630 c-234 -33 -553 -145 -608 -215 -32 -40 -29 -89 7 -126 38
-37 83 -38 153 -3 270 137 627 187 916 129 97 -20 242 -63 242 -73 0 -4 -381
-388 -848 -855 l-847 -847 -79 0 c-96 0 -138 18 -161 67 -15 32 -17 63 -12
247 7 291 40 453 138 665 47 101 49 130 10 173 -33 38 -82 43 -126 14 -33 -22
-90 -140 -139 -287 -68 -204 -89 -368 -84 -650 3 -189 4 -195 31 -251 34 -70
101 -131 173 -158 54 -20 72 -20 1434 -20 1362 0 1380 0 1434 20 72 27 139 88
173 158 27 56 28 62 31 251 5 282 -16 446 -84 650 -82 248 -203 441 -398 637
-242 241 -514 388 -844 455 -111 23 -406 33 -512 19z m1048 -469 c92 -68 232
-198 232 -215 0 -6 -291 -302 -647 -658 l-648 -648 -340 0 -340 0 804 804
c804 804 805 805 831 791 15 -8 63 -41 108 -74z m409 -463 c49 -87 82 -164
117 -276 44 -139 58 -242 63 -468 5 -185 3 -215 -11 -247 -34 -69 -11 -67
-717 -67 l-634 0 565 565 c311 311 567 565 570 565 4 0 24 -33 47 -72z"/>
<path d="M1434 4181 c-34 -15 -64 -60 -64 -98 0 -69 87 -117 151 -83 24 13 49
61 49 94 0 56 -83 109 -136 87z"/>
<path d="M1157 2120 c-122 -38 -222 -132 -268 -247 -33 -82 -33 -224 0 -306
91 -230 366 -333 586 -219 176 90 264 303 205 494 -69 224 -303 349 -523 278z
m224 -208 c168 -87 151 -330 -27 -398 -143 -54 -302 65 -292 218 8 116 105
208 218 208 33 0 64 -9 101 -28z"/>
<path d="M3717 2120 c-122 -38 -222 -132 -268 -247 -19 -46 -23 -78 -23 -153
0 -112 22 -181 85 -260 209 -265 629 -185 729 138 99 320 -206 624 -523 522z
m224 -208 c168 -87 151 -330 -27 -398 -143 -54 -302 65 -292 218 8 116 105
208 218 208 33 0 64 -9 101 -28z"/>
<path d="M1951 2046 c-48 -26 -50 -43 -51 -324 0 -286 3 -307 55 -330 19 -9
177 -12 605 -12 428 0 586 3 605 12 51 23 55 45 55 328 0 283 -4 305 -55 328
-40 18 -1181 16 -1214 -2z m1069 -326 l0 -140 -460 0 -460 0 0 140 0 140 460
0 460 0 0 -140z"/>
</g>
</svg>
